<?xml version="1.0" encoding="utf-8"?>
<!-- Generator: Adobe Illustrator 21.1.0, SVG Export Plug-In . SVG Version: 6.00 Build 0)  -->
<svg version="1.1" id="Layer_1" xmlns="http://www.w3.org/2000/svg" xmlns:xlink="http://www.w3.org/1999/xlink" x="0px" y="0px"
	 viewBox="0 0 193 51" style="enable-background:new 0 0 193 51;" xml:space="preserve">
<style type="text/css">
	.st0{fill:#5F5F5E;}
	.st1{fill:#FCBC00;}
</style>
<g>
	<path class="st0" d="M0.6,10.3c0-1,0.5-1.2,1.2-1.2h8.1c4.5,0,7,2.8,7,6.3c0,2.2-1.2,5.1-3.9,5.9l4.4,7.9c0.1,0.2,0.2,0.3,0.2,0.5
		c0,0.3-0.2,0.6-0.8,0.6h-3c-0.7,0-1.1-0.4-1.4-1.1L8.7,22H4.9v7.2c0,1-0.5,1.2-1.2,1.2H1.8c-0.7,0-1.2-0.2-1.2-1.2L0.6,10.3
		L0.6,10.3z M9.1,18.5c2.9,0,3.7-1.5,3.7-2.9c0-1.5-0.8-2.9-3.8-2.9h-4v5.8H9.1L9.1,18.5z"/>
	<path class="st0" d="M19.9,10.3c0-1,0.5-1.2,1.2-1.2H33c1,0,1.2,0.5,1.2,1.2v1.4c0,0.7-0.2,1.2-1.2,1.2h-8.8v4.8h8.5
		c1,0,1.2,0.5,1.2,1.2v1.4c0,0.7-0.2,1.2-1.2,1.2h-8.5v5.1H33c1,0,1.2,0.5,1.2,1.2v1.4c0,0.7-0.2,1.2-1.2,1.2H21.1
		c-0.7,0-1.2-0.2-1.2-1.2L19.9,10.3L19.9,10.3z"/>
	<path class="st0" d="M46.3,8.7c6,0,8.2,3,9.2,5.3c0.3,0.5,0.2,1.1-0.7,1.2l-2.3,0.3c-0.8,0.1-1-0.3-1.5-1c-0.8-1.3-2.3-2-4.7-2
		c-3.3,0-5.9,2.8-5.9,7.3c0,3.8,2.4,7.3,6.2,7.3c3.6,0,5.2-1.9,5.4-4.3h-3.9c-1,0-1.2-0.5-1.2-1.2v-1.1c0-0.7,0.2-1.2,1.2-1.2h7.5
		c0.6,0,1.2,0.6,1.1,1.2c-0.4,6.9-4.1,10.4-10.4,10.4c-6.3,0-10.4-5.3-10.4-11C36,14,40,8.7,46.3,8.7"/>
	<path class="st0" d="M63.1,22.5l3.4-8.6l3.4,8.6H63.1L63.1,22.5z M77.2,29.5l-8.5-19.4c-0.2-0.4-0.6-0.8-1.1-0.9
		c-0.1,0-0.2,0-0.3,0h0h-1.7h0c-0.1,0-0.2,0-0.3,0c-0.5,0.1-0.9,0.5-1.1,0.9l-8.5,19.4c-0.2,0.5,0.1,0.9,0.6,0.9H59
		c0.6,0,1.2-0.4,1.4-0.9l1.4-3.5h9.5l1.4,3.5c0.2,0.5,0.8,0.9,1.4,0.9h2.6C77.2,30.4,77.5,30,77.2,29.5"/>
	<path class="st0" d="M110.8,22.5l3.4-8.6l3.4,8.6H110.8L110.8,22.5z M124.9,29.5l-8.5-19.4c-0.2-0.4-0.6-0.8-1.1-0.9
		c-0.1,0-0.2,0-0.3,0h0h-1.7h0c-0.1,0-0.2,0-0.3,0c-0.5,0.1-0.9,0.5-1.1,0.9l-8.5,19.4c-0.2,0.5,0.1,0.9,0.6,0.9h2.6
		c0.6,0,1.2-0.4,1.4-0.9l1.4-3.5h9.5l1.4,3.5c0.2,0.5,0.8,0.9,1.4,0.9h2.6C124.8,30.4,125.1,30,124.9,29.5"/>
	<path class="st0" d="M79.9,12.9h-4.4c-1,0-1.2-0.5-1.2-1.2v-1.4c0-0.7,0.2-1.2,1.2-1.2h13.1c1,0,1.2,0.5,1.2,1.2v1.4
		c0,0.7-0.2,1.2-1.2,1.2h-4.4v16.3c0,1-0.5,1.2-1.2,1.2h-1.9c-0.7,0-1.2-0.2-1.2-1.2V12.9L79.9,12.9z"/>
	<path class="st0" d="M96.5,12.9h-4.4c-1,0-1.2-0.5-1.2-1.2v-1.4c0-0.7,0.2-1.2,1.2-1.2h13.1c1,0,1.2,0.5,1.2,1.2v1.4
		c0,0.7-0.2,1.2-1.2,1.2h-4.4v16.3c0,1-0.5,1.2-1.2,1.2h-1.9c-0.7,0-1.2-0.2-1.2-1.2L96.5,12.9L96.5,12.9z"/>
	<path class="st1" d="M188.8,1.1c0-0.2,0-0.3-0.1-0.4c-0.2-0.4-0.6-0.6-1-0.6c-0.2,0-0.3,0-0.5,0.1l-27.1,12.5
		c-0.3,0.2-0.7,0.2-1.1,0.2c-0.7,0-1.3-0.3-1.8-0.7l-2.1-2.1c-2.7-2.7-6.2-4.1-10-4.1c-3.8,0-7.3,1.5-10,4.1
		c-2.7,2.7-4.1,6.2-4.1,10l0,0.3l0,7.2c0,1.5,1.2,2.8,2.8,2.8h44.3c0.8,0,1.5-0.7,1.5-1.5v-2.8c0-0.8-0.7-1.5-1.5-1.5h-41v-4.4
		c0-2.2,0.8-4.2,2.4-5.7c1.5-1.5,3.5-2.4,5.7-2.4c2.1,0,4.1,0.8,5.7,2.3l2.1,2.1l0,0c1.6,1.6,3.8,2.5,6.1,2.5c1.3,0,2.6-0.3,3.8-0.9
		l25.1-11.6c0.5-0.3,0.9-0.8,0.9-1.4L188.8,1.1L188.8,1.1z"/>
	<path class="st1" d="M190.1,0.3h-0.4c-0.1,0-0.1,0-0.1-0.1V0.1c0-0.1,0-0.1,0.1-0.1h1.1c0.1,0,0.1,0,0.1,0.1v0.1
		c0,0.1,0,0.1-0.1,0.1h-0.4v1.3c0,0.1,0,0.1-0.1,0.1h-0.2c-0.1,0-0.1,0-0.1-0.1L190.1,0.3L190.1,0.3z"/>
	<path class="st1" d="M191.1,0.1C191.1,0,191.1,0,191.1,0.1l0.4-0.1c0.1,0,0.1,0,0.1,0.1l0.5,1.2l0.5-1.2c0-0.1,0.1-0.1,0.1-0.1h0.3
		c0.1,0,0.1,0,0.1,0.1v1.5c0,0.1,0,0.1-0.1,0.1h-0.1c-0.1,0-0.1,0-0.1-0.1V0.5h0l-0.5,1.1c0,0.1,0,0.1-0.1,0.1H192
		c-0.1,0-0.1,0-0.1-0.1l-0.5-1.1h0v1.1c0,0.1,0,0.1-0.1,0.1h-0.1c-0.1,0-0.1,0-0.1-0.1V0.1L191.1,0.1z"/>
	<path class="st0" d="M189.8,36.2c0-0.9,0.7-1.6,1.6-1.6c0.9,0,1.6,0.7,1.6,1.6c0,0.9-0.7,1.6-1.6,1.6
		C190.5,37.8,189.8,37.1,189.8,36.2 M192.6,36.2c0-0.7-0.5-1.3-1.3-1.3c-0.7,0-1.3,0.5-1.3,1.3c0,0.7,0.5,1.3,1.3,1.3
		C192.1,37.5,192.6,37,192.6,36.2 M190.8,37.1C190.7,37.1,190.7,37.1,190.8,37.1l-0.1-1.7c0,0,0-0.1,0.1-0.1h0.7
		c0.4,0,0.7,0.2,0.7,0.5c0,0.3-0.1,0.4-0.3,0.5l0.4,0.7c0,0,0,0.1,0,0.1h-0.3c0,0-0.1,0-0.1-0.1l-0.3-0.6h-0.2c0,0,0,0,0,0v0.6
		c0,0,0,0.1-0.1,0.1H190.8L190.8,37.1z M191.7,35.9c0-0.1-0.1-0.2-0.3-0.2h-0.3c0,0,0,0,0,0v0.3c0,0,0,0,0,0h0.3
		C191.6,36.1,191.7,36,191.7,35.9"/>
	<path class="st0" d="M25.3,39.6c0,2.3-2,2.6-3.2,2.6h-2.9v-5.3h2.8C24.1,36.9,25.3,37.8,25.3,39.6 M24,43.9
		c1.4-0.4,3.4-1.5,3.4-4.6c0-1.3-0.5-4.4-5.4-4.4h-4.2c-0.4,0-0.7,0.3-0.7,0.7V50c0,0.4,0.3,0.7,0.7,0.7h0.6c0.4,0,0.7-0.3,0.7-0.7
		v-5.8h2.7l3.4,6c0.2,0.3,0.4,0.6,0.8,0.6h1c0.2,0,0.4-0.1,0.5-0.3c0.1-0.2,0.1-0.4,0-0.6L24,43.9L24,43.9z"/>
	<path class="st0" d="M14.1,42.5H8.2c-0.4,0-0.7,0.3-0.7,0.7v0.4c0,0.4,0.3,0.7,0.7,0.7h4.4c-0.2,1.3-1,4.6-5,4.6
		c-3.3,0-5.4-2.4-5.4-6.2c0-3.9,2.1-6.4,5.4-6.4c2.1,0,3.6,0.8,4.4,2.3c0.1,0.3,0.5,0.5,0.8,0.5c0.1,0,0.1,0,0.2,0l0.5-0.1
		c0.2,0,0.3-0.2,0.4-0.3c0.1-0.2,0.1-0.4,0-0.6c-0.9-2.2-3.3-3.6-6.1-3.6c-5.2,0-7.9,4.1-7.9,8.2c0,5,2.9,8.2,7.6,8.2
		c5.1,0,7.1-4,7.2-7.7C14.8,42.9,14.5,42.5,14.1,42.5"/>
	<path class="st0" d="M38.3,35h-7.5c-0.4,0-0.7,0.3-0.7,0.7V50c0,0.4,0.3,0.7,0.7,0.7h7.5c0.4,0,0.7-0.3,0.7-0.7v-0.4
		c0-0.4-0.3-0.8-0.7-0.8h-6.2v-5.2h6c0.4,0,0.7-0.3,0.7-0.7v-0.4c0-0.4-0.3-0.7-0.7-0.7h-6v-4.8h6.2c0.4,0,0.7-0.3,0.7-0.7v-0.4
		C39,35.3,38.7,35,38.3,35"/>
	<path class="st0" d="M63.7,35h-9.9c-0.4,0-0.7,0.3-0.7,0.7v0.4c0,0.4,0.3,0.7,0.7,0.7h3.9V50c0,0.4,0.3,0.7,0.7,0.7h0.6
		c0.4,0,0.7-0.3,0.7-0.7V36.9h3.9c0.4,0,0.7-0.3,0.7-0.7v-0.4C64.5,35.3,64.2,35,63.7,35"/>
	<path class="st0" d="M50.3,44.5h-5.4l2.7-6.7L50.3,44.5L50.3,44.5z M49,35.6c-0.1-0.4-0.5-0.7-0.9-0.7h-1c-0.4,0-0.8,0.3-0.9,0.7
		L40.3,50c-0.1,0.2,0,0.4,0.1,0.5c0.1,0.1,0.3,0.2,0.5,0.2h0.8c0.6,0,0.8-0.3,0.9-0.7l1.5-3.7h7l1.5,3.7c0.1,0.3,0.3,0.7,0.9,0.7
		h0.8c0.2,0,0.4-0.1,0.5-0.2c0.1-0.2,0.1-0.3,0.1-0.5L49,35.6L49,35.6z"/>
	<path class="st0" d="M77.8,49.1c-4.3,0-5.8-3.2-5.8-6.2c0-2.9,1.5-6.3,5.8-6.3c4.3,0,5.8,3.4,5.8,6.3
		C83.6,45.8,82.1,49.1,77.8,49.1 M77.8,34.7c-4.6,0-8,3.5-8,8.2c0,4.9,3.2,8.2,8,8.2c4.6,0,8-3.5,8-8.2
		C85.8,37.9,82.6,34.7,77.8,34.7"/>
	<path class="st0" d="M99.2,35h-0.6c-0.4,0-0.7,0.3-0.7,0.7v9.1c0,2.7-1.4,4.3-3.9,4.3c-2.5,0-3.9-1.4-3.9-3.9v-9.5
		c0-0.4-0.3-0.7-0.7-0.7h-0.6c-0.4,0-0.7,0.3-0.7,0.7v9.7c0,3.4,2.3,5.6,6,5.6c3.6,0,5.9-2.4,5.9-6.2v-9.2C100,35.3,99.6,35,99.2,35
		"/>
	<path class="st0" d="M112.2,35h-9.9c-0.4,0-0.7,0.3-0.7,0.7v0.4c0,0.4,0.3,0.7,0.7,0.7h3.9V50c0,0.4,0.3,0.7,0.7,0.7h0.6
		c0.4,0,0.7-0.3,0.7-0.7V36.9h3.9c0.4,0,0.7-0.3,0.7-0.7v-0.4C112.9,35.3,112.6,35,112.2,35"/>
	<path class="st0" d="M125.5,42.7c0,2.8-1.5,6.1-5.8,6.1h-3V36.9h2.8C124.9,36.9,125.5,41,125.5,42.7 M119.5,35h-4.2
		c-0.4,0-0.7,0.3-0.7,0.7V50c0,0.4,0.3,0.7,0.7,0.7h4.3c5.3,0,8-4,8-8C127.7,40.9,127.1,35,119.5,35"/>
	<path class="st0" d="M137.3,49.1c-4.3,0-5.8-3.2-5.8-6.2c0-2.9,1.5-6.3,5.8-6.3c4.3,0,5.8,3.4,5.8,6.3
		C143.1,45.8,141.6,49.1,137.3,49.1 M137.3,34.6c-4.6,0-8,3.5-8,8.2c0,4.9,3.2,8.2,8,8.2c4.6,0,8-3.5,8-8.2
		C145.3,37.9,142.1,34.6,137.3,34.6"/>
	<path class="st0" d="M154.9,49.1c-4.3,0-5.8-3.2-5.8-6.2c0-2.9,1.5-6.3,5.8-6.3c4.3,0,5.8,3.4,5.8,6.3
		C160.7,45.8,159.2,49.1,154.9,49.1 M154.9,34.7c-4.6,0-8,3.5-8,8.2c0,4.9,3.2,8.2,8,8.2c4.6,0,8-3.5,8-8.2
		C162.9,37.9,159.7,34.7,154.9,34.7"/>
	<path class="st0" d="M173.4,39.6c0,2.3-2,2.6-3.2,2.6h-2.9v-5.3h2.8C172.2,36.9,173.4,37.8,173.4,39.6 M172.1,43.9
		c1.4-0.4,3.4-1.5,3.4-4.6c0-1.3-0.5-4.4-5.4-4.4h-4.2c-0.4,0-0.7,0.3-0.7,0.7V50c0,0.4,0.3,0.7,0.7,0.7h0.6c0.4,0,0.7-0.3,0.7-0.7
		v-5.8h2.7l3.4,6c0.2,0.3,0.4,0.6,0.8,0.6h1c0.2,0,0.4-0.1,0.5-0.3c0.1-0.2,0.1-0.4,0-0.6L172.1,43.9L172.1,43.9z"/>
	<path class="st0" d="M183.2,41.7c-2.8-0.5-3.4-1.3-3.4-2.6c0-1.5,1.3-2.5,3.3-2.5c2.2,0,3,1.1,3.2,2c0.1,0.4,0.5,0.7,0.9,0.7h0.6
		c0.2,0,0.4-0.1,0.5-0.2c0.1-0.2,0.2-0.3,0.2-0.5c-0.4-2.6-2.2-3.9-5.4-3.9c-3.1,0-5.4,1.9-5.4,4.4c0,3,1.7,3.9,5.4,4.7
		c2.8,0.6,3.5,1.1,3.5,2.6c0,1.4-1.1,2.7-3.5,2.7c-2.1,0-3.3-0.7-3.7-2.3c-0.1-0.4-0.4-0.7-0.9-0.7H178c-0.2,0-0.4,0.1-0.5,0.2
		c-0.1,0.1-0.2,0.3-0.2,0.5c0.4,2.7,2.4,4.1,5.7,4.1c4.3,0,5.8-2.6,5.8-4.8C188.9,43.3,187,42.4,183.2,41.7"/>
</g>
</svg>
